%TF.GenerationSoftware,KiCad,Pcbnew,10.0.4*%
%TF.CreationDate,2026-06-25T11:28:14+05:30*%
%TF.ProjectId,macropad,6d616372-6f70-4616-942e-6b696361645f,rev?*%
%TF.SameCoordinates,Original*%
%TF.FileFunction,Copper,L2,Bot*%
%TF.FilePolarity,Positive*%
%FSLAX46Y46*%
G04 Gerber Fmt 4.6, Leading zero omitted, Abs format (unit mm)*
G04 Created by KiCad (PCBNEW 10.0.4) date 2026-06-25 11:28:14*
%MOMM*%
%LPD*%
G01*
G04 APERTURE LIST*
G04 Aperture macros list*
%AMRoundRect*
0 Rectangle with rounded corners*
0 $1 Rounding radius*
0 $2 $3 $4 $5 $6 $7 $8 $9 X,Y pos of 4 corners*
0 Add a 4 corners polygon primitive as box body*
4,1,4,$2,$3,$4,$5,$6,$7,$8,$9,$2,$3,0*
0 Add four circle primitives for the rounded corners*
1,1,$1+$1,$2,$3*
1,1,$1+$1,$4,$5*
1,1,$1+$1,$6,$7*
1,1,$1+$1,$8,$9*
0 Add four rect primitives between the rounded corners*
20,1,$1+$1,$2,$3,$4,$5,0*
20,1,$1+$1,$4,$5,$6,$7,0*
20,1,$1+$1,$6,$7,$8,$9,0*
20,1,$1+$1,$8,$9,$2,$3,0*%
G04 Aperture macros list end*
%TA.AperFunction,ComponentPad*%
%ADD10C,2.200000*%
%TD*%
%TA.AperFunction,ComponentPad*%
%ADD11RoundRect,0.170000X-0.680000X-0.680000X0.680000X-0.680000X0.680000X0.680000X-0.680000X0.680000X0*%
%TD*%
%TA.AperFunction,ComponentPad*%
%ADD12C,1.700000*%
%TD*%
%TA.AperFunction,ComponentPad*%
%ADD13O,1.700000X3.700000*%
%TD*%
%TA.AperFunction,ComponentPad*%
%ADD14O,1.700000X3.600000*%
%TD*%
%TA.AperFunction,ComponentPad*%
%ADD15R,1.700000X3.500000*%
%TD*%
%TA.AperFunction,Conductor*%
%ADD16C,0.200000*%
%TD*%
G04 APERTURE END LIST*
D10*
%TO.P,SW3,1,1_1*%
%TO.N,Net-(U1-PA7_A8_D8_SCK)*%
X232337515Y-98400000D03*
%TO.P,SW3,2,2_2*%
%TO.N,GND*%
X225987515Y-100940000D03*
%TD*%
D11*
%TO.P,U3,1,GND_1*%
%TO.N,GND*%
X197217515Y-83480000D03*
D12*
%TO.P,U3,2,VCC_2*%
%TO.N,Net-(U1-3V3)*%
X199757515Y-83480000D03*
%TO.P,U3,3,SCL_3*%
%TO.N,Net-(U1-PA9_A5_D5_SCL)*%
X202297515Y-83480000D03*
%TO.P,U3,4,SDA_4*%
%TO.N,Net-(U1-PA8_A4_D4_SDA)*%
X204837515Y-83480000D03*
%TD*%
D13*
%TO.P,U1,14,5V_14*%
%TO.N,unconnected-(U1-5V-Pad14)*%
X192567015Y-93067015D03*
%TO.P,U1,13,GND_13*%
%TO.N,GND*%
X195107015Y-93067015D03*
%TO.P,U1,12,3V3_12*%
%TO.N,Net-(U1-3V3)*%
X197647015Y-93067015D03*
%TO.P,U1,11,PA6_A10_D10_MOSI_11*%
%TO.N,Net-(U1-PA6_A10_D10_MOSI)*%
X200187015Y-93067015D03*
D14*
%TO.P,U1,10,PA5_A9_D9_MISO_10*%
%TO.N,Net-(U1-PA5_A9_D9_MISO)*%
X202727015Y-93067015D03*
%TO.P,U1,9,PA7_A8_D8_SCK_9*%
%TO.N,Net-(U1-PA7_A8_D8_SCK)*%
X205267015Y-93067015D03*
%TO.P,U1,8,PB09_A7_D7_RX_8*%
%TO.N,unconnected-(U1-PB09_A7_D7_RX-Pad8)*%
X207807015Y-93067015D03*
%TO.P,U1,7,PB08_A6_D6_TX_7*%
%TO.N,unconnected-(U1-PB08_A6_D6_TX-Pad7)*%
X207807015Y-110317015D03*
%TO.P,U1,6,PA9_A5_D5_SCL_6*%
%TO.N,Net-(U1-PA9_A5_D5_SCL)*%
X205267015Y-110317015D03*
%TO.P,U1,5,PA8_A4_D4_SDA_5*%
%TO.N,Net-(U1-PA8_A4_D4_SDA)*%
X202727015Y-110317015D03*
%TO.P,U1,4,PA11_A3_D3_4*%
%TO.N,unconnected-(U1-PA11_A3_D3-Pad4)*%
X200187015Y-110317015D03*
%TO.P,U1,3,PA10_A2_D2_3*%
%TO.N,Net-(U1-PA10_A2_D2)*%
X197647015Y-110317015D03*
%TO.P,U1,2,PA4_A1_D1_2*%
%TO.N,unconnected-(U1-PA4_A1_D1-Pad2)*%
X195107015Y-110317015D03*
D15*
%TO.P,U1,1,PA02_A0_D0_1*%
%TO.N,unconnected-(U1-PA02_A0_D0-Pad1)*%
X192567015Y-110317015D03*
%TD*%
D10*
%TO.P,SW2,2,2_2*%
%TO.N,GND*%
X248004067Y-74703617D03*
%TO.P,SW2,1,1_1*%
%TO.N,Net-(U1-PA5_A9_D9_MISO)*%
X254354067Y-72163617D03*
%TD*%
%TO.P,SW1,2,2_2*%
%TO.N,GND*%
X248114067Y-51673617D03*
%TO.P,SW1,1,1_1*%
%TO.N,Net-(U1-PA6_A10_D10_MOSI)*%
X254464067Y-49133617D03*
%TD*%
%TO.P,SW5,1,1_1*%
%TO.N,Net-(U1-PA10_A2_D2)*%
X231297515Y-72480000D03*
%TO.P,SW5,2,2_2*%
%TO.N,GND*%
X224947515Y-75020000D03*
%TD*%
%TO.N,GND*%
D16*
X225263898Y-74703617D02*
X224947515Y-75020000D01*
X248004067Y-74703617D02*
X225263898Y-74703617D01*
X244920450Y-48480000D02*
X232217515Y-48480000D01*
X248114067Y-51673617D02*
X244920450Y-48480000D01*
%TO.N,Net-(U1-PA8_A4_D4_SDA)*%
X201147515Y-83003654D02*
X201147515Y-91330000D01*
X201821169Y-82330000D02*
X201147515Y-83003654D01*
X201577015Y-91759500D02*
X201577015Y-108167015D01*
X201577015Y-108167015D02*
X202727015Y-109317015D01*
X203687515Y-82330000D02*
X201821169Y-82330000D01*
X201147515Y-91330000D02*
X201577015Y-91759500D01*
X204837515Y-83480000D02*
X203687515Y-82330000D01*
%TO.N,Net-(U1-3V3)*%
X197647015Y-85590500D02*
X197647015Y-94067015D01*
X199757515Y-83480000D02*
X197647015Y-85590500D01*
%TO.N,GND*%
X195107015Y-85590500D02*
X195107015Y-94067015D01*
X197217515Y-83480000D02*
X195107015Y-85590500D01*
X232217515Y-48480000D02*
X197217515Y-83480000D01*
X248004067Y-72823617D02*
X248004067Y-74703617D01*
X248114067Y-72713617D02*
X248004067Y-72823617D01*
X225987515Y-76060000D02*
X224947515Y-75020000D01*
X225987515Y-100940000D02*
X225987515Y-76060000D01*
%TO.N,Net-(U1-PA6_A10_D10_MOSI)*%
X254924067Y-49133617D02*
X254464067Y-49133617D01*
X254924067Y-49133617D02*
X255004067Y-49213617D01*
%TO.N,GND*%
X248114067Y-72713617D02*
X248114067Y-51673617D01*
%TD*%
M02*
